<svg width="512" height="512" viewBox="0 0 512 512" fill="none" xmlns="http://www.w3.org/2000/svg">
  <!-- Fondo negro puro -->
  <rect width="512" height="512" fill="#000000"/>

  <!-- Icono de coche (Lucide "Car"), trazo fino blanco.
       El icono mide 24u; su contenido visible va de x[2,22], y[7.7,19]
       (centro real 12, 13.3). Lo escalamos x14 (~57% del lienzo) y lo
       centramos respecto a su centro visible para que quede a media altura. -->
  <g transform="translate(256 256) scale(14) translate(-12 -13.3)" fill="none" stroke="#ffffff" stroke-width="1" stroke-linecap="round" stroke-linejoin="round">
    <path d="M19 17h2c.6 0 1-.4 1-1v-3c0-.9-.7-1.7-1.5-1.9C18.7 10.6 16 10 16 10s-1.3-1.4-2.2-2.3c-.5-.4-1.1-.7-1.8-.7H5c-.6 0-1.1.4-1.4.9l-1.4 2.9A3.7 3.7 0 0 0 2 12v4c0 .6.4 1 1 1h2"/>
    <circle cx="7" cy="17" r="2"/>
    <path d="M9 17h6"/>
    <circle cx="17" cy="17" r="2"/>
  </g>
</svg>
